<svg width="901" height="414" viewBox="0 0 901 414" fill="none" xmlns="http://www.w3.org/2000/svg">
<path d="M272.291 0.179657C244.751 2.17816 218.576 9.14847 195.764 20.6032L191.377 22.7967H144.924H98.5202L97.5453 21.0419C96.1318 18.361 91.7936 14.7052 88.6253 13.4867C86.5781 12.658 84.7745 12.3655 81.7037 12.3655C78.0479 12.3168 77.1706 12.5118 74.2947 13.8766C62.645 19.3846 59.7691 33.6665 68.3967 43.269C76.0982 51.8478 90.4288 50.7755 97.0579 41.1242L98.9102 38.3946H228.617H358.323L359.249 36.6886C360.614 34.2026 364.026 31.2293 367.243 29.7182C369.681 28.5484 370.607 28.4022 374.896 28.4022C379.234 28.4022 380.063 28.5484 382.549 29.767C394.15 35.4212 396.538 50.9217 387.228 59.6468C379.039 67.2995 365.537 65.7397 359.542 56.4297L357.982 53.9925H253.525H149.067L144.242 59.1593C121.625 83.5798 105.198 114.24 96.8629 147.58C93.7434 160.01 91.3062 175.12 90.6238 185.941L90.3313 190.962H124.452H158.572L160.132 188.525C161.984 185.649 166.079 182.578 169.54 181.408C173.293 180.189 179.581 180.628 183.09 182.383C186.6 184.138 189.963 187.452 191.669 190.913C193.278 194.179 193.765 199.687 192.839 203.635C191.962 207.34 188.939 211.532 185.479 213.823C181.725 216.308 179.434 216.991 174.755 216.991C171.684 216.942 170.514 216.698 167.931 215.48C164.129 213.725 161.546 211.532 159.888 208.704L158.621 206.56H97.0092H35.3973L34.2275 204.707C30.2305 198.371 21.7492 194.715 14.8763 196.324C7.1261 198.127 1.71556 203.83 0.253258 211.678C-1.1603 219.379 3.47033 227.812 10.9768 231.321C18.7758 234.928 29.2557 231.906 33.8863 224.644L35.4948 222.158H62.7425H89.9901L90.1851 223.23C90.3313 223.864 90.575 226.447 90.7213 228.982C91.9886 249.162 97.6428 273.582 105.588 293.616C113.533 313.601 126.109 334.317 139.611 349.719L142.243 352.79H229.104H315.916L316.843 351.084C318.11 348.745 321.327 345.82 324.544 344.163C326.884 342.895 327.566 342.798 332.245 342.798C336.925 342.798 337.607 342.944 340.142 344.211C353.108 350.743 354.18 368.388 342.092 376.09C333.854 381.403 322.351 378.966 317.086 370.777L315.526 368.388H215.456H115.385L114.801 367.365C113.923 365.659 110.365 362.003 108.513 360.833C103.59 357.762 96.1318 357.275 90.8675 359.712C87.0167 361.515 83.9459 364.489 82.0449 368.34C80.5826 371.313 80.4851 371.898 80.4851 376.431C80.4851 380.672 80.6313 381.646 81.8012 384.084C84.3846 389.592 89.6002 393.589 95.6931 394.661C99.0077 395.295 104.077 394.515 107.099 393.004C109.146 391.931 113.143 388.178 114.411 386.131L115.434 384.474H147.654H179.922L184.065 386.96C207.218 400.949 232.711 409.382 263.03 413.086C272.973 414.305 300.562 414.305 311.042 413.086C357.007 407.724 393.614 390.908 422.908 361.564C431.146 353.326 440.31 342.359 441.431 339.386C442.162 337.485 442.016 334.024 441.187 331.928C440.115 329.442 377.674 266.904 374.847 265.539C370.168 263.248 366.025 264.711 361.443 270.316C346.576 288.351 328.151 300.245 308.556 304.388C302.853 305.558 301.293 305.704 292.276 305.704C284.233 305.655 281.162 305.46 276.678 304.632C265.516 302.584 255.182 298.246 246.359 291.861L241.631 288.449H210.484H179.337L177.777 290.837C171.636 300.342 157.792 301.707 149.701 293.567C140.878 284.744 143.462 269.731 154.77 264.175C158.28 262.469 164.616 262.079 168.418 263.346C171.733 264.418 175.681 267.44 177.68 270.414L179.337 272.851H217.211H255.036L256.693 275.386C264.443 287.133 282.43 285.768 288.717 272.948C289.936 270.463 290.082 269.683 290.082 265.052C290.082 260.47 289.936 259.641 288.717 257.204C287.06 253.792 282.917 249.795 279.261 248.089C276.873 246.968 275.8 246.773 272.047 246.773C268.294 246.773 267.27 246.968 264.833 248.089C260.982 249.893 258.497 251.94 256.644 254.865L255.084 257.253H237.098H219.16L218.429 255.401C215.261 247.894 212.483 236.829 211.069 225.716C209.899 217.088 209.899 197.006 211.069 188.378C212.58 176.729 215.505 165.225 218.917 157.524L220.087 154.892H253.671H287.255L288.815 157.329C292.617 163.178 300.465 166.493 307.191 165.128C313.479 163.86 318.939 159.425 321.132 153.917C321.961 151.87 322.204 150.163 322.253 146.849C322.253 142.949 322.107 142.121 320.742 139.294C318.89 135.394 315.575 131.982 311.871 130.227C306.606 127.693 299.197 128.131 294.226 131.251C292.373 132.421 288.815 136.077 287.938 137.783L287.353 138.806H222.329H157.305L155.843 140.902C153.795 143.876 150.725 146.508 147.556 148.019C145.217 149.091 144.193 149.286 140.196 149.286C135.955 149.286 135.273 149.14 132.348 147.726C128.497 145.825 125.524 142.754 123.721 138.904C122.551 136.467 122.405 135.492 122.405 131.251C122.405 126.962 122.551 126.035 123.721 123.598C125.378 119.991 128.936 116.482 132.641 114.678C135.224 113.411 136.101 113.265 140.196 113.216C144.193 113.216 145.217 113.411 147.605 114.532C150.822 115.994 154.722 119.455 156.086 121.99L157.012 123.696H200.54H244.117L248.845 120.527C256.644 115.361 264.784 111.949 273.899 110.048C288.425 107.025 304.12 107.757 317.281 112.046C332.83 117.115 349.208 128.863 361.443 143.778C366.025 149.384 370.168 150.846 374.847 148.555C377.674 147.19 440.115 84.6522 441.187 82.1663C442.113 79.8753 442.113 76.3658 441.236 74.3186C440.846 73.4412 438.994 70.809 437.142 68.4694C415.304 40.978 387.813 21.5781 355.204 10.6108C333.757 3.39673 315.088 0.423401 289.839 0.13092C281.65 0.0821838 273.753 0.0821838 272.291 0.179657ZM85.4082 22.7479C88.1866 24.0153 90.0876 26.6474 90.3801 29.6208C90.6725 32.7891 90.2826 34.1539 88.4303 36.2499C82.1911 43.3177 70.7851 37.176 73.466 28.2072C74.9771 23.1379 80.5826 20.5545 85.4082 22.7479ZM307.776 139.001C308.507 139.391 309.677 140.317 310.408 141.097C315.526 146.459 311.724 155.525 304.315 155.574C295.054 155.672 291.886 144.071 299.782 139.245C301.586 138.124 305.875 138.026 307.776 139.001ZM21.6517 206.316C25.3562 207.876 27.1109 210.508 27.1109 214.407C27.1109 224.79 12.2442 226.398 10.002 216.26C9.3683 213.579 10.1969 210.849 12.3417 208.461C14.8763 205.682 18.2396 204.902 21.6517 206.316ZM275.362 257.058C278.969 258.91 280.577 261.347 280.577 265.052C280.577 268.025 279.749 269.731 277.458 271.779C271.998 276.604 263.371 272.461 263.322 265.003C263.322 258.862 270.097 254.377 275.362 257.058ZM103.2 369.022C107.733 372.093 108.708 377.942 105.296 382.036C103.492 384.181 101.396 385.107 98.374 385.107C95.3031 385.107 92.3785 383.353 90.9162 380.574C89.064 377.113 90.2338 371.605 93.2559 369.461C95.1569 368.145 95.7418 367.998 98.8127 367.95C100.909 367.901 101.932 368.145 103.2 369.022Z" fill="#001E5E"/>
<path d="M520.152 0.56955C518.251 1.44693 516.301 3.25046 515.18 5.29767C514.351 6.90622 514.303 9.48962 514.303 65.2035V123.452L538.187 123.598L562.071 123.696L562.997 121.99C564.362 119.455 568.262 115.994 571.479 114.532C573.819 113.46 574.94 113.216 578.644 113.216C582.592 113.216 583.372 113.362 586.297 114.776C590.245 116.628 593.413 119.747 595.314 123.598C596.533 126.084 596.679 126.913 596.679 131.251C596.679 135.638 596.533 136.418 595.266 139.05C593.413 142.754 590.148 146.02 586.492 147.824C582.544 149.725 576.987 150.066 572.892 148.652C569.09 147.288 565.678 144.655 563.534 141.487L561.779 138.806H523.905L486.031 138.757L484.325 136.272C479.451 129.009 469.361 126.474 461.318 130.422C449.669 136.125 447.28 151.236 456.639 160.302C463.512 166.98 474.479 167.077 481.791 160.497C483.058 159.327 484.569 157.621 485.057 156.646L486.031 154.892H500.021H514.059V206.072V257.253H481.303H448.499L446.939 254.816C439.189 242.971 421.349 244.287 415.012 257.156C413.55 260.129 413.404 260.763 413.404 265.052C413.404 269.293 413.55 269.975 414.963 272.9C416.913 276.799 420.374 280.211 424.273 282.015C428.075 283.769 434.412 283.867 438.604 282.21C441.772 280.942 445.477 277.774 447.28 274.849L448.499 272.9L513.62 272.851H578.742L580.35 270.365C582.202 267.44 585.419 264.954 589.124 263.541C593.072 262.03 599.506 262.371 603.26 264.272C606.818 266.027 609.791 269 611.692 272.607C613.155 275.337 613.252 275.824 613.252 280.65C613.252 285.281 613.106 286.06 611.887 288.546C607.403 297.661 596.777 301.463 587.759 297.223C584.298 295.565 581.812 293.469 580.009 290.642L578.644 288.449H546.327H514.059L514.156 347.77L514.303 407.139L515.473 409.187C516.155 410.356 517.52 411.867 518.592 412.599L520.542 413.963H628.801C728.823 413.963 737.694 413.915 745.347 413.086C780.442 409.479 805.35 401.583 825.871 387.544L830.404 384.474H847.855H865.256L866.182 386.18C867.547 388.666 870.959 391.688 874.176 393.15C876.272 394.125 877.929 394.466 880.951 394.612C887.337 394.905 891.578 393.101 895.867 388.422C898.938 384.961 900.254 381.403 900.254 376.431C900.254 371.167 898.938 367.803 895.38 364.001C889.725 357.908 881.683 356.3 874.03 359.809C870.959 361.174 867.498 364.245 866.182 366.682L865.256 368.388H735.55H605.843L604.04 371.02C601.895 374.14 599.945 375.749 596.046 377.552C593.706 378.673 592.634 378.868 588.88 378.868C585.127 378.868 584.055 378.673 581.715 377.552C577.815 375.749 574.306 372.336 572.405 368.437C570.991 365.561 570.845 364.83 570.845 360.833C570.845 356.934 571.04 356.105 572.356 353.278C574.208 349.378 577.474 346.015 581.228 344.163C583.713 342.944 584.542 342.798 588.88 342.798C592.926 342.798 594.145 342.993 596.143 343.919C599.458 345.43 602.675 348.16 604.381 350.938L605.843 353.278H731.553H857.262L859.407 348.745C863.55 339.922 866.475 329.978 868.278 318.67C869.497 310.773 869.497 289.229 868.278 280.942C864.915 258.715 855.654 238.828 842.2 224.936L839.471 222.158H786.779H734.087L732.186 224.839C730.042 227.861 725.655 231.078 722.535 232.004C719.61 232.832 714.102 232.735 711.227 231.76C705.767 229.908 700.942 224.546 699.479 218.746C697.383 210.508 701.527 201.832 709.326 197.981C711.958 196.714 712.64 196.567 717.319 196.567C721.999 196.567 722.681 196.714 725.021 197.932C728.238 199.589 731.455 202.514 732.722 204.854L733.649 206.56H795.309H856.97L858.334 208.704C860.187 211.629 863.111 214.212 866.426 215.772C868.766 216.845 869.789 217.04 873.786 217.04C877.832 217.04 878.807 216.845 881.39 215.675C885.143 213.92 888.897 210.167 890.7 206.316C891.919 203.781 892.065 202.806 892.065 198.761C892.065 194.471 891.919 193.838 890.456 190.864C887.239 184.284 881.39 180.579 874.03 180.531C867.498 180.433 862.136 183.212 858.676 188.427L857.018 190.962H835.425C823.532 190.962 813.832 190.864 813.832 190.767C813.832 190.621 816.171 188.525 818.998 186.039C835.133 172.001 846.197 152.601 850.389 131.007C852.29 121.405 852.924 104.929 851.852 95.1808C850.341 81.8737 846.246 68.713 840.202 58.0382L837.96 53.9925H743.641H649.273L647.567 56.5271C638.452 70.0778 617.59 65.6909 614.471 49.6055C612.96 41.7578 617.395 33.2277 624.804 29.8157C627.534 28.5483 628.411 28.4021 632.506 28.4021C636.503 28.4021 637.526 28.5971 639.866 29.6694C643.229 31.278 646.3 33.9589 647.957 36.8347L649.225 38.9795L749.295 38.8332L849.366 38.687L850.974 41.0754C858.773 52.6764 876.613 51.2628 882.901 38.492C884.12 36.0061 884.266 35.2262 884.266 30.5956C884.266 26.0137 884.12 25.185 882.901 22.7479C881.439 19.7258 877.442 15.6313 874.469 14.1202C866.231 9.97705 855.751 12.7554 850.828 20.4082L849.268 22.7966H827.821H806.423L803.644 21.1393C789.265 12.463 768.939 5.7851 747.199 2.56802C730.48 0.130859 734.623 0.179596 624.463 0.0333862C539.064 -0.0641174 521.37 0.0333862 520.152 0.56955ZM869.302 22.5529C872.958 24.1127 874.761 26.7448 874.761 30.5956C874.761 33.374 874.03 35.1287 871.983 37.0297C866.621 42.099 857.603 38.3458 857.555 30.9368C857.457 24.4052 863.453 20.1645 869.302 22.5529ZM702.306 98.5928C716.881 100.786 725.752 107.708 728.872 119.358C729.993 123.598 729.993 133.054 728.872 137.246C727.507 142.364 725.655 145.63 722.243 149.091C718.392 152.942 713.859 155.428 707.132 157.231L702.453 158.499L671.647 158.694C643.619 158.84 640.695 158.791 639.232 158.011C636.99 156.89 635.967 155.915 634.894 153.819C634.017 152.113 633.968 150.602 633.968 128.326C633.968 106.051 634.017 104.539 634.894 102.833C635.918 100.835 636.941 99.8114 639.086 98.6903C640.353 98.0079 644.009 97.9104 669.063 97.8616C691.632 97.8616 698.553 98.0079 702.306 98.5928ZM473.797 139.489C480.572 143.486 478.671 154.014 470.823 155.623C467.314 156.354 463.024 153.917 461.367 150.261C460.344 148.019 460.246 147.044 460.929 144.558C462.44 139.147 468.874 136.613 473.797 139.489ZM877.491 190.913C882.706 193.301 884.217 200.174 880.464 204.464C877.734 207.583 873.542 208.412 869.935 206.56C863.55 203.343 863.55 194.179 869.984 191.011C872.568 189.743 874.859 189.743 877.491 190.913ZM714.639 251.94C729.262 253.402 738.718 258.667 743.397 267.928C745.786 272.705 746.663 277.14 746.663 284.306C746.566 300.732 739.205 310.286 723.266 314.673L718.538 315.94L679.689 316.135C644.204 316.281 640.695 316.184 639.232 315.453C636.99 314.332 635.967 313.357 634.894 311.261C634.017 309.555 633.968 307.995 633.968 284.013C633.968 256.229 633.919 256.961 636.844 254.133C639.671 251.404 639.184 251.453 675.692 251.404C696.701 251.404 711.324 251.599 714.639 251.94ZM435.582 257.35C439.091 259.154 440.992 262.907 440.261 266.709C439.53 270.56 435.533 273.826 431.536 273.826C425.297 273.826 421.008 266.807 423.835 261.25C426.126 256.717 431.097 255.108 435.582 257.35ZM886.021 368.681C887.873 369.607 889.774 372.044 890.359 374.286C891.334 377.893 889.823 381.598 886.46 383.889C884.169 385.448 879.197 385.302 876.808 383.547C873.591 381.305 872.324 376.138 874.079 372.434C876.077 368.242 881.683 366.487 886.021 368.681Z" fill="#001E5E"/>
<path d="M370.656 38.3946C366.367 40.6855 364.709 45.8523 366.854 50.288C370.607 58.087 381.769 56.4297 383.622 47.8021C384.353 44.39 381.672 39.5157 378.211 38.1021C376.018 37.176 372.752 37.2735 370.656 38.3946Z" fill="#001E5E"/>
<path d="M628.85 38.1995C623.001 41.2216 621.734 47.9482 626.121 52.5301C630.313 56.917 637.624 55.8934 640.354 50.4828C641.816 47.607 641.524 43.5612 639.623 41.0753C637.137 37.8583 632.116 36.4934 628.85 38.1995Z" fill="#001E5E"/>
<path d="M137.662 122.721C132.349 124.329 129.765 130.763 132.544 135.638C135.858 141.536 143.95 141.731 147.8 136.028C152.334 129.252 145.509 120.332 137.662 122.721Z" fill="#001E5E"/>
<path d="M575.232 123.16C571.186 124.963 568.944 129.301 570.016 133.298C571.088 137.295 573.915 139.781 577.912 140.171C586.101 140.951 590.878 130.812 584.98 125.109C582.104 122.282 578.644 121.6 575.232 123.16Z" fill="#001E5E"/>
<path d="M171.002 191.011C167.493 192.765 165.592 197.055 166.567 201.003C168.224 207.486 175.925 209.874 180.995 205.439C188.94 198.468 180.507 186.331 171.002 191.011Z" fill="#001E5E"/>
<path d="M713.03 206.608C705.914 210.215 706.937 220.647 714.639 222.938C717.904 223.864 720.439 223.279 723.023 221.037C727.361 217.235 727.068 210.8 722.389 207.242C719.952 205.39 715.955 205.097 713.03 206.608Z" fill="#001E5E"/>
<path d="M159.205 272.412C157.646 273.046 155.403 275.142 154.526 276.848C153.405 278.944 153.649 282.941 155.013 285.232C158.377 290.935 166.858 290.984 170.173 285.378C173.78 279.188 169.539 271.779 162.471 271.925C161.35 271.925 159.888 272.169 159.205 272.412Z" fill="#001E5E"/>
<path d="M591.171 272.9C587.661 274.654 585.76 278.944 586.735 282.892C588.393 289.375 596.094 291.763 601.163 287.328C609.109 280.357 600.676 268.22 591.171 272.9Z" fill="#001E5E"/>
<path d="M328.59 352.595C323.521 355.227 321.913 360.833 324.886 365.512C328.005 370.435 334.635 371.118 338.632 366.926C342.239 363.124 342.092 357.762 338.242 354.155C335.707 351.767 331.515 351.084 328.59 352.595Z" fill="#001E5E"/>
<path d="M585.468 352.498C583.519 353.326 581.081 356.153 580.35 358.396C578.352 364.537 584.64 371.118 590.879 369.46C592.097 369.119 593.706 368.388 594.535 367.803C596.387 366.438 597.898 363.221 597.898 360.784C597.898 358.639 596.533 355.374 595.168 354.155C592.682 351.962 588.344 351.23 585.468 352.498Z" fill="#001E5E"/>
</svg>
